Coordinates
version=1
nRows=17
nColumns=40
inDegrees=yes

Units are S.I. units (second, meters, Newtons, ...)
Angles are in degrees.

endheader
time	pelvis_tilt	pelvis_list	pelvis_rotation	pelvis_tx	pelvis_ty	pelvis_tz	hip_flexion_r	hip_adduction_r	hip_rotation_r	knee_angle_r	knee_angle_r_beta	ankle_angle_r	subtalar_angle_r	mtp_angle_r	hip_flexion_l	hip_adduction_l	hip_rotation_l	knee_angle_l	knee_angle_l_beta	ankle_angle_l	subtalar_angle_l	mtp_angle_l	lumbar_extension	lumbar_bending	lumbar_rotation	arm_flex_r	arm_add_r	arm_rot_r	elbow_flex_r	pro_sup_r	wrist_flex_r	wrist_dev_r	arm_flex_l	arm_add_l	arm_rot_l	elbow_flex_l	pro_sup_l	wrist_flex_l	wrist_dev_l
     51.51000000	     -5.28238790	     -7.49647151	      1.32852032	      0.93484985	      0.92640297	      0.48960827	     13.69850868	      5.34015421	    -16.21925551	     14.85296207	     14.85296207	      9.08670494	      0.58503708	     -5.38345441	     39.35304423	    -12.66659718	      6.88503382	     76.77477538	     76.77477538	      8.23461501	    -19.02957777	     14.61796247	    -11.71735026	      5.74443757	      6.49859523	      7.24581094	    -14.03574022	     -0.23724778	     35.74631106	     45.65311720	      0.00000000	      0.00000000	      3.76007142	     -9.22540852	     -3.41344726	     74.07999073	     46.27579655	      0.00000000	      0.00000000
     51.52135714	     -5.35212526	     -7.46379453	      1.70552873	      0.93373111	      0.92671064	      0.48980185	     12.95439724	      5.41464663	    -16.31594860	     14.22892809	     14.22892809	      9.21185803	      0.54753910	     -5.60834365	     41.23016903	    -12.38747216	      7.08570460	     76.36029081	     76.36029081	      8.66678340	    -19.11968280	     15.30308577	    -11.69532386	      5.65075240	      6.23542086	      9.31944134	    -14.27724870	     -0.21713133	     37.62261616	     45.59846985	      0.00000000	      0.00000000	      3.02555469	     -8.61194039	     -3.64760824	     68.80689669	     46.27832929	      0.00000000	      0.00000000
     51.53271429	     -5.38489281	     -7.42366984	      2.07779853	      0.93266507	      0.92700492	      0.48993708	     12.17937989	      5.47430249	    -16.48311415	     13.62128689	     13.62128689	      9.33684311	      0.61543640	     -5.88321375	     42.94579855	    -12.08086264	      7.22901762	     75.78474390	     75.78474390	      9.14955997	    -19.19436515	     16.35728113	    -11.72495233	      5.56343947	      6.29520511	     10.97067584	    -14.74102591	     -0.05984819	     40.15351827	     45.51043840	      0.00000000	      0.00000000	      2.88432719	     -7.99950657	     -3.43133902	     62.68074137	     46.26646414	      0.00000000	      0.00000000
     51.54407143	     -5.39967883	     -7.39248731	      2.44649781	      0.93165615	      0.92725341	      0.49001770	     11.37734887	      5.55184534	    -16.63307550	     12.99040864	     12.99040864	      9.47474799	      0.69742641	     -6.06421951	     44.49638116	    -11.77737976	      7.32975142	     74.99507511	     74.99507511	      9.54552206	    -19.26315071	     17.33178165	    -11.77511201	      5.49122442	      6.30532956	     12.67447742	    -15.19440523	      0.02746443	     42.61706170	     45.43121869	      0.00000000	      0.00000000	      2.86898599	     -7.45481813	     -3.22590078	     56.56377306	     46.24513014	      0.00000000	      0.00000000
     51.55542857	     -5.39621166	     -7.36739365	      2.79250355	      0.93073038	      0.92741156	      0.49006461	     10.56731785	      5.64010639	    -16.78193696	     12.38096006	     12.38096006	      9.62638425	      0.79932391	     -6.21390588	     45.88586064	    -11.49622390	      7.36389309	     73.99942684	     73.99942684	      9.88014919	    -19.30185644	     18.23240962	    -11.86097090	      5.41706126	      6.38721651	     14.28861141	    -15.63953701	      0.04193876	     45.22837857	     45.35206803	      0.00000000	      0.00000000	      2.97627836	     -6.94527778	     -3.07677396	     50.48467942	     46.22522709	      0.00000000	      0.00000000
     51.56678571	     -5.40094408	     -7.35080695	      3.12143976	      0.92984140	      0.92742282	      0.49005134	      9.79613041	      5.73390998	    -16.88111317	     11.82845832	     11.82845832	      9.86045367	      0.87939285	     -6.21328496	     47.11412044	    -11.26001689	      7.31284707	     72.72031222	     72.72031222	      9.95800593	    -19.32602553	     18.51832042	    -11.99086609	      5.34860143	      5.67562671	     16.65400918	    -15.47256360	     -0.17142219	     47.18866462	     45.30552898	      0.00000000	      0.00000000	      1.61909211	     -7.00864660	     -2.83933790	     47.68206373	     46.17365176	      0.00000000	      0.00000000
     51.57814286	     -5.40944829	     -7.36815272	      3.41091285	      0.92907708	      0.92739674	      0.48993821	      8.99867902	      5.85721390	    -17.08716580	     11.22498161	     11.22498161	      9.98683099	      1.13940868	     -6.39580538	     48.17077896	    -11.00037542	      7.32606888	     71.18679912	     71.18679912	     10.15929493	    -19.33236465	     19.25322971	    -12.00525202	      5.30867674	      6.34412317	     17.63670941	    -16.42408196	      0.14457577	     50.60941933	     45.18528218	      0.00000000	      0.00000000	      2.92415550	     -6.20241466	     -2.81313167	     39.55469618	     46.15717147	      0.00000000	      0.00000000
     51.58950000	     -5.43124371	     -7.38752032	      3.67131653	      0.92837016	      0.92721670	      0.48976462	      8.25890311	      5.97293427	    -17.23672338	     10.71367180	     10.71367180	     10.19783423	      1.36518401	     -6.41457476	     49.03973018	    -10.77034190	      7.26994397	     69.32903176	     69.32903176	     10.10215445	    -19.32234304	     19.27871221	    -12.11090531	      5.27189264	      6.44413963	     18.92423402	    -16.81766976	     -0.24269199	     54.38124462	     45.09510267	      0.00000000	      0.00000000	      2.69177003	     -5.92399126	     -2.78999423	     35.04075811	     46.15089298	      0.00000000	      0.00000000
     51.60085714	     -5.46204169	     -7.40724276	      3.87751795	      0.92775991	      0.92693046	      0.48952937	      7.52662380	      6.08986728	    -17.32523400	     10.21767103	     10.21767103	     10.43622526	      1.58982053	     -6.40322632	     49.70079304	    -10.53503863	      7.21083871	     67.16673098	     67.16673098	     10.05753908	    -19.28035933	     19.33385652	    -12.18905921	      5.21415845	      5.79361309	     21.24452845	    -16.45869633	     -0.46423574	     56.61481579	     45.04134196	      0.00000000	      0.00000000	      1.24725399	     -6.07534321	     -2.62489078	     33.01482852	     46.10634432	      0.00000000	      0.00000000
     51.61221429	     -5.52145440	     -7.46547768	      4.03182290	      0.92732510	      0.92652404	      0.48918095	      6.81217416	      6.21521810	    -17.61366604	      9.73576310	      9.73576310	     10.73702260	      2.21923782	     -6.35425557	     50.15190275	    -10.35186468	      7.15191099	     64.65403371	     64.65403371	      9.65104487	    -19.19567333	     18.35291311	    -12.21144349	      5.24799621	      6.22035713	     22.26089758	    -17.26673636	     -0.19780745	     61.06696300	     44.91023682	      0.00000000	      0.00000000	      1.34947563	     -5.81872487	     -2.17062025	     28.16367875	     46.05135408	      0.00000000	      0.00000000
     51.62357143	     -5.59698665	     -7.50534784	      4.13178725	      0.92701719	      0.92601341	      0.48878185	      6.12292533	      6.33346121	    -17.68922672	      9.28193253	      9.28193253	     10.99075899	      2.55560108	     -6.32882958	     50.38988064	    -10.11043280	      7.16444625	     61.87279798	     61.87279798	      9.54992252	    -19.03561229	     18.19413336	    -12.21489576	      5.22799337	      5.66957805	     24.53286206	    -16.81033904	     -0.43994865	     63.58402393	     44.85030225	      0.00000000	      0.00000000	     -0.19516954	     -5.96403889	     -2.00211196	     26.62910088	     46.00156907	      0.00000000	      0.00000000
     51.63492857	     -5.67762445	     -7.58713489	      4.16625816	      0.92693676	      0.92538877	      0.48831659	      5.41970377	      6.45252399	    -18.07957939	      8.85473841	      8.85473841	     11.39526261	      3.54382893	     -6.16478955	     50.33091396	     -9.99986246	      7.12292048	     58.68385740	     58.68385740	      8.86383411	    -18.77277698	     16.17894963	    -12.23663757	      5.28358878	      6.04954539	     25.61513998	    -17.47288982	     -0.17979958	     68.31016142	     44.71864245	      0.00000000	      0.00000000	     -0.92257611	     -5.95131016	     -1.32252794	     24.09792868	     45.88737682	      0.00000000	      0.00000000
     51.64628571	     -5.79295981	     -7.69275891	      4.14777030	      0.92706909	      0.92458045	      0.48781845	      4.75584067	      6.62766056	    -18.10595821	      8.43674364	      8.43674364	     11.70013824	      3.95640840	     -6.11110767	     50.12343551	     -9.87530318	      7.20483852	     55.35303983	     55.35303983	      8.80943687	    -18.29684074	     15.79977678	    -12.15741372	      5.34935163	      5.62644098	     27.81507253	    -16.91205984	     -0.40406693	     71.04324477	     44.65575654	      0.00000000	      0.00000000	     -2.54528950	     -6.07645976	     -1.04869950	     22.95584011	     45.81114471	      0.00000000	      0.00000000
     51.65764286	     -5.91816793	     -7.72198593	      4.01440393	      0.92748229	      0.92368214	      0.48731127	      4.09695254	      6.70215842	    -18.05466267	      8.07576281	      8.07576281	     12.04678274	      4.44158470	     -6.11554557	     49.62961021	     -9.83778017	      7.09269131	     51.77338380	     51.77338380	      8.94281630	    -17.48762625	     15.54437881	    -12.03051770	      5.31558561	      5.57655780	     29.92673291	    -16.63005093	     -0.48439295	     73.50528958	     44.59232280	      0.00000000	      0.00000000	     -4.08720627	     -6.18758703	     -0.86952854	     22.15662701	     45.74904185	      0.00000000	      0.00000000
     51.66900000	     -5.97806378	     -7.98578664	      3.89695027	      0.92836492	      0.92261160	      0.48674792	      3.31760957	      7.00510761	    -18.43839183	      7.69046276	      7.69046276	     12.70623715	      5.69361743	     -5.25428100	     48.76090276	    -10.10598308	      6.98432439	     47.74165045	     47.74165045	      7.63229624	    -16.80477833	     11.36453952	    -12.01343194	      5.60287336	      6.18167217	     30.63889175	    -17.12469200	     -0.82947306	     79.09594740	     44.55571124	      0.00000000	      0.00000000	     -5.56576255	     -6.60346534	      2.48300382	     21.81181014	     45.07299430	      0.00000000	      0.00000000
     51.68035714	     -6.05532192	     -8.14431452	      3.67688099	      0.92952477	      0.92136583	      0.48611582	      2.57469108	      7.18999059	    -18.48072404	      7.38597539	      7.38597539	     13.21635629	      6.46029008	     -4.95865462	     47.80454356	    -10.33833707	      6.75121736	     43.93446697	     43.93446697	      7.82198781	    -15.59336254	     11.10909760	    -11.88528334	      5.75905973	      6.28538735	     32.39195523	    -16.96054757	     -0.62097384	     82.43085231	     44.70888233	      0.00000000	      0.00000000	     -7.87718657	     -7.44578629	      7.95251409	     23.07446095	     44.19448832	      0.00000000	      0.00000000
     51.69171429	     -6.13067998	     -8.31127179	      3.40796101	      0.93106387	      0.91992056	      0.48540031	      1.78875415	      7.38118052	    -18.43568311	      7.04618730	      7.04618730	     13.63351179	      7.15518027	     -4.97279026	     46.68541995	    -10.63725724	      6.38165763	     40.18534543	     40.18534543	      8.20567322	    -14.29330599	     11.57740367	    -11.71162046	      5.91180956	      6.30189967	     34.16123673	    -16.75781013	     -0.27459420	     85.57295123	     44.62822918	      0.00000000	      0.00000000	     -9.78643428	     -7.55803790	      8.10105250	     23.29562033	     44.17729839	      0.00000000	      0.00000000
